<?xml version="1.0" encoding="utf-8"?>
<!-- Generator: Adobe Illustrator 24.3.0, SVG Export Plug-In . SVG Version: 6.00 Build 0)  -->
<svg version="1.1" id="Layer_1" xmlns="http://www.w3.org/2000/svg" xmlns:xlink="http://www.w3.org/1999/xlink" x="0px" y="0px"
	 viewBox="0 0 512 512" style="enable-background:new 0 0 512 512;" xml:space="preserve">
<style type="text/css">
	.st0{fill:#00C1C1;}
	.st1{fill:url(#XMLID_13_);}
	.st2{fill:url(#XMLID_14_);}
	.st3{fill:url(#XMLID_15_);}
	.st4{fill:url(#XMLID_16_);}
	.st5{opacity:0.9;fill:url(#XMLID_17_);enable-background:new    ;}
	.st6{fill:url(#XMLID_18_);}
	.st7{fill:url(#XMLID_19_);}
	.st8{fill:url(#XMLID_20_);}
	.st9{opacity:0.9;fill:#007C7C;enable-background:new    ;}
</style>
<g id="XMLID_1_">
	<polygon id="XMLID_10_" class="st0" points="331.77,511.76 95.41,511.76 51.92,407.96 178.31,363.77 62.86,256.04 181.39,149.15 
		51.92,104.12 95.41,-0.1 331.77,-0.1 459.98,255.9 	"/>
	
		<linearGradient id="XMLID_13_" gradientUnits="userSpaceOnUse" x1="261.4207" y1="361.0806" x2="261.4207" y2="254.7197" gradientTransform="matrix(1 0 0 -1 0 512)">
		<stop  offset="0" style="stop-color:#00C7C7"/>
		<stop  offset="1" style="stop-color:#00B5B5"/>
	</linearGradient>
	<polygon id="XMLID_9_" class="st1" points="62.86,256.04 459.98,255.9 181.39,149.15 	"/>
	
		<linearGradient id="XMLID_14_" gradientUnits="userSpaceOnUse" x1="206.3474" y1="422.5632" x2="270.3899" y2="305.6209" gradientTransform="matrix(1 0 0 -1 0 512)">
		<stop  offset="0" style="stop-color:#009999"/>
		<stop  offset="1" style="stop-color:#005454"/>
	</linearGradient>
	<polygon id="XMLID_8_" class="st2" points="459.98,255.9 226.42,104.12 51.92,104.12 181.39,149.15 	"/>
	
		<linearGradient id="XMLID_15_" gradientUnits="userSpaceOnUse" x1="58.5065" y1="433.9735" x2="329.743" y2="502.8759" gradientTransform="matrix(1 0 0 -1 0 512)">
		<stop  offset="0" style="stop-color:#00C7C7"/>
		<stop  offset="0.3542" style="stop-color:#00C1C1"/>
		<stop  offset="0.8307" style="stop-color:#00B0B0"/>
		<stop  offset="1" style="stop-color:#00A8A8"/>
	</linearGradient>
	<polygon id="XMLID_7_" class="st3" points="226.42,104.12 51.92,104.12 95.41,-0.1 331.77,-0.1 	"/>
	
		<linearGradient id="XMLID_16_" gradientUnits="userSpaceOnUse" x1="387.6496" y1="397.8867" x2="345.2489" y2="335.0252" gradientTransform="matrix(1 0 0 -1 0 512)">
		<stop  offset="0.85" style="stop-color:#007878"/>
		<stop  offset="0.898" style="stop-color:#007272"/>
		<stop  offset="0.9596" style="stop-color:#006262"/>
		<stop  offset="1" style="stop-color:#005454"/>
	</linearGradient>
	<polygon id="XMLID_6_" class="st4" points="226.42,104.12 331.77,-0.1 459.98,255.9 	"/>
	
		<linearGradient id="XMLID_17_" gradientUnits="userSpaceOnUse" x1="343.2004" y1="406.3759" x2="343.2004" y2="251.1465" gradientTransform="matrix(1 0 0 -1 0 512)">
		<stop  offset="0" style="stop-color:#006B6B"/>
		<stop  offset="1" style="stop-color:#007878"/>
	</linearGradient>
	<polygon id="XMLID_5_" class="st5" points="459.98,255.9 226.42,255.9 226.42,104.12 	"/>
	
		<linearGradient id="XMLID_18_" gradientUnits="userSpaceOnUse" x1="84.768" y1="79.8787" x2="457.021" y2="247.14" gradientTransform="matrix(1 0 0 -1 0 512)">
		<stop  offset="0" style="stop-color:#007878"/>
		<stop  offset="1" style="stop-color:#005454"/>
	</linearGradient>
	<polygon id="XMLID_4_" class="st6" points="459.98,255.9 226.42,407.68 51.92,407.68 181.39,362.79 	"/>
	
		<linearGradient id="XMLID_19_" gradientUnits="userSpaceOnUse" x1="59.7661" y1="95.9693" x2="316.6133" y2="-15.1448" gradientTransform="matrix(1 0 0 -1 0 512)">
		<stop  offset="0" style="stop-color:#00C7C7"/>
		<stop  offset="0.429" style="stop-color:#00B8B8"/>
		<stop  offset="1" style="stop-color:#00A8A8"/>
	</linearGradient>
	<polygon id="XMLID_3_" class="st7" points="226.42,407.68 51.92,407.68 95.41,511.9 331.77,511.9 	"/>
	
		<linearGradient id="XMLID_20_" gradientUnits="userSpaceOnUse" x1="423.124" y1="61.7204" x2="341.8654" y2="182.191" gradientTransform="matrix(1 0 0 -1 0 512)">
		<stop  offset="0.85" style="stop-color:#007878"/>
		<stop  offset="0.898" style="stop-color:#007272"/>
		<stop  offset="0.9596" style="stop-color:#006262"/>
		<stop  offset="1" style="stop-color:#005454"/>
	</linearGradient>
	<polygon id="XMLID_2_" class="st8" points="226.42,407.68 331.77,511.9 459.98,255.9 	"/>
	<polygon id="XMLID_11_" class="st9" points="459.98,255.9 226.42,256.04 226.42,407.68 	"/>
</g>
</svg>
