<?xml version="1.0" encoding="utf-8"?>
<!-- Generator: Adobe Illustrator 25.0.1, SVG Export Plug-In . SVG Version: 6.00 Build 0)  -->
<svg version="1.0" id="Layer_1" xmlns="http://www.w3.org/2000/svg" xmlns:xlink="http://www.w3.org/1999/xlink" x="0px" y="0px"
	 viewBox="0 0 300 300" style="enable-background:new 0 0 300 300;" xml:space="preserve">
<style type="text/css">
	.st0{fill:#4C4C4C;}
	.st1{fill:#808080;}
	.st2{fill:none;}
</style>
<path class="st0" transform="translate(-50,-140)" d="M312.5,346.7V220.2L203,157v48.5l42.9,24.9c1.7,1.1,1.7,3.4,0,4l-50.9,29.4c-1.4,0.9-3.1,0.9-4.5,0l-50.8-29.4
	c-1.1-0.5-1.6-1.8-1.1-2.9c0.2-0.5,0.6-0.9,1.1-1.1l42.9-24.9V157L72.5,220.2v126.5l41.8-24.3v-49.7c0.2-1.5,1.5-2.5,3-2.3
	c0.1,0,0.3,0,0.4,0.1l50.8,29.4c1.5,0.8,2.3,2.3,2.3,4v58.6c-0.2,1.5-1.5,2.5-3,2.3c-0.1,0-0.3,0-0.4-0.1l-42.9-24.8l-41.8,24.3
	L192.2,428l109.6-63.2L260,340.5l-42.9,24.9c-1.7,1.1-3.4,0-3.4-2.3v-58.7c0-1.6,0.9-3.1,2.3-4l50.8-29.4c1.7-1.1,3.4,0,3.4,2.3V323
	L312.5,346.7z"/>
<path transform="translate(-50,-140)" d="M192.2,428l109.6-63.2L260,340.5l-42.9,24.9c-1.7,1.1-3.4,0-3.4-2.3v-58.7c0-1.6,0.9-3.1,2.3-4l50.8-29.4
	c1.7-1.1,3.4,0,3.4,2.3V323l41.8,24.3V220.2l-119.8,69.5V428z"/>
<path class="st1" transform="translate(-50,-140)" d="M203,157v48.5l42.9,24.9c1.7,1.1,1.7,3.4,0,4l-50.9,29.4c-1.4,0.9-3.1,0.9-4.5,0l-50.8-29.4
	c-1.1-0.5-1.6-1.8-1.1-2.9c0.2-0.5,0.6-0.9,1.1-1.1l42.9-24.9V157L72.5,220.2l119.7,69.5L312,220.2L203,157z"/>
<path class="st0" transform="translate(-50,-140)" d="M167.9,365.4L125,340.5l-41.8,24.3L192.8,428V289.7L72.5,220.2v126.5l41.8-24.3v-49.7c0.2-1.5,1.5-2.5,3-2.3
	c0.1,0,0.3,0,0.4,0.1l50.8,29.4c1.5,0.8,2.3,2.3,2.3,4v58.6C171.3,364.8,169.6,366.5,167.9,365.4z"/>
</svg>
